<mxfile host="app.diagrams.net" modified="2024-07-10T11:05:13.355Z" agent="Mozilla/5.0 (Macintosh; Intel Mac OS X 10_15_7) AppleWebKit/537.36 (KHTML, like Gecko) Chrome/125.0.0.0 Safari/537.36" version="24.6.4" etag="75PCuosQshk1SSQRdSvK" type="github">
  <diagram name="Page-1" id="J7PY8k_-dKGQx3XRKAti">
    <mxGraphModel>
      <root>
        <mxCell id="0" />
        <mxCell id="1" parent="0" />
      </root>
    </mxGraphModel>
  </diagram>
</mxfile>
